<?xml version="1.0" standalone="no"?>
<!DOCTYPE svg PUBLIC "-//W3C//DTD SVG 20010904//EN"
 "http://www.w3.org/TR/2001/REC-SVG-20010904/DTD/svg10.dtd">
<svg version="1.0" xmlns="http://www.w3.org/2000/svg"
 width="100.000000pt" height="100.000000pt" viewBox="0 0 100.000000 100.000000"
 preserveAspectRatio="xMidYMid meet">
<metadata>
Created by potrace 1.14, written by Peter Selinger 2001-2017
</metadata>
<g transform="translate(0.000000,100.000000) scale(0.100000,-0.100000)"
fill="#000000" stroke="none">
<path d="M164 908 c-39 -19 -44 -49 -44 -279 l0 -221 31 -30 c26 -26 29 -35
20 -52 -21 -41 -53 -178 -47 -202 4 -15 21 -31 46 -43 22 -11 38 -16 36 -12
-7 11 88 8 96 -3 5 -8 8 -8 8 0 0 15 111 15 129 1 8 -7 12 -7 9 -2 -4 6 13 10
43 11 29 1 49 -3 49 -10 0 -8 3 -8 8 -1 9 14 145 14 154 1 5 -8 8 -7 8 1 0 8
22 11 70 9 39 -1 70 2 70 8 0 5 7 14 15 20 17 13 28 66 14 66 -6 0 -9 6 -6 13
2 6 -2 25 -10 41 -8 16 -10 25 -4 21 6 -3 0 19 -14 51 -30 67 -29 60 -8 68 9
4 21 1 26 -6 6 -9 7 -8 3 4 -3 10 0 23 7 30 7 7 12 28 11 46 -1 17 4 32 10 32
6 0 4 5 -4 10 -13 8 -13 13 -2 31 8 11 9 19 4 15 -5 -3 -9 8 -9 24 0 17 5 27
10 23 6 -4 7 -1 1 8 -13 20 -13 209 0 209 6 0 5 4 -3 9 -8 5 -11 16 -8 24 8
23 -14 63 -44 81 -23 14 -72 16 -341 15 -194 0 -321 -4 -334 -11z"/>
<path d="M870 89 c0 -5 5 -7 10 -4 6 3 10 8 10 11 0 2 -4 4 -10 4 -5 0 -10 -5
-10 -11z"/>
</g>
</svg>
